<?xml version="1.0" encoding="UTF-8" standalone="no"?>
<!-- Created with Inkscape (http://www.inkscape.org/) -->

<svg
   width="68.784576mm"
   height="85.360443mm"
   viewBox="0 0 68.784576 85.360443"
   version="1.1"
   id="svg1"
   xmlns="http://www.w3.org/2000/svg"
   xmlns:svg="http://www.w3.org/2000/svg">
  <defs
     id="defs1" />
  <g
     id="layer1"
     transform="translate(-63.753224,-136.78053)">
    <path
       style="opacity:0.938005;fill:#ff4000;fill-opacity:1;stroke:#9d2e00;stroke-width:0.2;stroke-dasharray:none;stroke-opacity:1"
       d="m 71.038139,178.48791 c 1.680457,6.2796 2.25535,8.57917 2.808139,10.70188 0.552788,2.1227 1.083447,4.06845 1.547789,5.61625 0.464342,1.54781 0.862336,2.69757 1.260343,3.58203 0.398008,0.88446 0.796002,1.50356 1.21612,1.99001 0.420118,0.48646 0.862338,0.84023 1.282456,1.10557 0.420118,0.26533 0.818114,0.44222 1.304566,0.55278 0.486453,0.11055 1.061335,0.15478 5.970135,0.30956 4.908799,0.15478 14.151133,0.42011 20.209663,0.55277 6.05852,0.13267 8.93292,0.13267 10.59128,0.0221 1.65835,-0.11056 2.10056,-0.33166 2.5649,-0.66334 0.46435,-0.33167 0.95079,-0.77389 1.3488,-1.28245 0.398,-0.50857 0.70755,-1.08345 0.97289,-1.65835 0.26534,-0.5749 0.48645,-1.14978 0.79601,-2.69759 0.30956,-1.54782 0.70756,-4.06846 1.41513,-8.07065 0.70757,-4.0022 1.72467,-9.48569 3.13981,-17.09207 1.41514,-7.60638 3.22823,-17.33515 4.13479,-22.64187 0.90656,-5.30672 0.90656,-6.19115 0.77389,-7.03139 -0.13267,-0.84024 -0.398,-1.63623 -0.92868,-2.41013 -0.53068,-0.7739 -1.32667,-1.52567 -2.21113,-1.9679 -0.88446,-0.44222 -1.85734,-0.57489 -3.18403,-0.50855 -1.32669,0.0663 -3.00712,0.33166 -6.0143,0.70756 -3.00718,0.3759 -7.3409,0.86233 -11.47575,1.30456 -4.13485,0.44223 -8.07058,0.84023 -15.035741,1.76892 -6.965157,0.92869 -16.959257,2.388 -22.310195,3.31668 -5.350938,0.92868 -6.058484,1.32668 -6.522824,1.92369 -0.46434,0.59701 -0.685448,1.393 -0.796005,2.38802 -0.110557,0.99502 -0.110557,2.18901 1.282482,7.91593 1.39304,5.72693 4.179004,15.98636 5.859462,22.26597 z"
       id="path11" />
    <path
       style="fill:#be3000;fill-opacity:1;stroke:#ff6d05;stroke-width:0.109;stroke-dasharray:none;stroke-dashoffset:0;stroke-opacity:1"
       d="m 75.999746,177.45665 c 0.54527,1.80854 1.63583,5.42563 2.56482,8.48627 0.929,3.06064 1.69641,5.56473 2.1811,6.97579 0.48469,1.41107 0.68664,1.72905 0.96938,2.04704 0.28274,0.31798 0.64625,0.63596 0.96938,0.85458 0.32313,0.21862 0.60586,0.33786 1.02997,0.43723 0.42411,0.0994 0.98957,0.17887 3.53424,0.29811 2.54467,0.11924 7.06835,0.27824 12.25864,0.41736 5.190284,0.13913 11.046824,0.25836 14.318504,0.11924 3.27167,-0.13912 3.95829,-0.5366 4.46318,-0.9937 0.50489,-0.45711 0.82801,-0.97383 1.15114,-2.14642 0.32314,-1.1726 0.64626,-3.00098 1.31271,-6.30013 0.66646,-3.29915 1.67622,-8.06884 2.01953,-10.47361 0.34332,-2.40477 0.0202,-2.44452 -0.78764,-2.46439 -0.80782,-0.0199 -2.10031,-0.0199 -9.79491,0.0994 -7.69459,0.11926 -21.790714,0.35773 -28.980284,0.51673 -7.18957,0.15899 -7.4723,0.23849 -7.61367,0.27823 -0.14138,0.0397 -0.14138,0.0397 0.40391,1.84829 z"
       id="path12-9" />
    <text
       xml:space="preserve"
       style="font-style:normal;font-variant:normal;font-weight:normal;font-stretch:normal;font-size:17.9215px;font-family:'Arial Black';-inkscape-font-specification:'Arial Black, ';fill:#f9f9f9;fill-opacity:1;stroke:#ffffff;stroke-width:0.798012;stroke-dasharray:none;stroke-dashoffset:0;stroke-opacity:1"
       x="55.728378"
       y="144.34959"
       id="text12"
       transform="matrix(0.81606822,-0.12017259,0.17661822,1.1993793,0,0)"><tspan
         id="tspan12"
         style="font-style:normal;font-variant:normal;font-weight:normal;font-stretch:normal;font-size:17.9215px;font-family:'Arial Black';-inkscape-font-specification:'Arial Black, ';fill:#f9f9f9;stroke:#ffffff;stroke-width:0.798012;stroke-dasharray:none;stroke-opacity:1"
         x="55.728378"
         y="144.34959">ORDER</tspan></text>
    <text
       xml:space="preserve"
       style="font-style:normal;font-variant:normal;font-weight:normal;font-stretch:normal;font-size:12.8604px;font-family:'Arial Black';-inkscape-font-specification:'Arial Black, ';fill:#f9f9f9;fill-opacity:1;stroke:#ffffff;stroke-width:0.465302;stroke-dasharray:none;stroke-dashoffset:0;stroke-opacity:1"
       x="92.127075"
       y="175.91768"
       id="text13"
       transform="scale(0.92508898,1.0809771)"><tspan
         id="tspan13"
         style="stroke-width:0.465301"
         x="92.127075"
         y="175.91768">NOW</tspan></text>
    <path
       style="fill:#ff6600;stroke:#ff6600;stroke-width:1.519;stroke-dasharray:none;stroke-opacity:1"
       d="m -113.26271,98.161016 c -17.19915,2.936444 -34.3983,5.872884 -34.81763,-5.034146 -0.41933,-10.907027 15.94051,-35.656532 16.77935,-40.061033 0.83883,-4.404501 -13.84307,11.535854 -28.52528,27.476535"
       id="path1"
       transform="rotate(-67.638885,70.577733,-35.348335)" />
  </g>
</svg>
